<svg width="16" height="16" viewBox="0 0 16 16" fill="none" xmlns="http://www.w3.org/2000/svg">
	<path fill-rule="evenodd" clip-rule="evenodd" d="M1.99993 14L13.9999 1.99999L14.707 2.70709L2.70703 14.7071L1.99993 14Z" fill="currentColor" />
	<path fill-rule="evenodd" clip-rule="evenodd" d="M3.86042 12.1396C4.96726 12.9206 6.34831 13.5 8.00042 13.5C10.1647 13.5 11.8638 12.5056 13.0906 11.3664C14.3142 10.2302 15.0968 8.92536 15.4476 8.22361L15.5594 8L15.4476 7.77639C15.0968 7.07464 14.3142 5.76979 13.0906 4.6336C12.8002 4.36388 12.4832 4.10228 12.1399 3.86007L11.4211 4.57893C11.7779 4.81844 12.1076 5.08537 12.4102 5.3664C13.4 6.28551 14.0778 7.33562 14.4368 8C14.0778 8.66438 13.4 9.71449 12.4102 10.6336C11.3037 11.6611 9.83614 12.5 8.00042 12.5C6.66657 12.5 5.52709 12.0571 4.57927 11.4207L3.86042 12.1396ZM3.78075 10.805C3.71624 10.7486 3.65287 10.6914 3.59065 10.6336C2.60084 9.71449 1.92309 8.66438 1.56409 8C1.92309 7.33562 2.60084 6.28551 3.59065 5.3664C4.69713 4.33895 6.1647 3.5 8.00042 3.5C8.93513 3.5 9.77439 3.71751 10.5191 4.06665L11.2645 3.32131C10.3304 2.82723 9.24197 2.5 8.00042 2.5C5.83614 2.5 4.13705 3.49439 2.9102 4.6336C1.68661 5.76979 0.904089 7.07464 0.55321 7.77639L0.441406 8L0.55321 8.22361C0.904089 8.92536 1.68661 10.2302 2.9102 11.3664C2.96333 11.4157 3.01735 11.4648 3.07226 11.5135L3.78075 10.805ZM5.87868 10.1213C6.42157 10.6642 7.17157 11 8 11C9.65685 11 11 9.65685 11 8C11 7.17157 10.6642 6.42157 10.1213 5.87868L9.41421 6.58579C9.77614 6.94772 10 7.44772 10 8C10 9.10457 9.10457 10 8 10C7.44772 10 6.94772 9.77614 6.58579 9.41421L5.87868 10.1213ZM6.06774 8.51804L5.29237 9.29342C5.10495 8.90178 5 8.46315 5 8C5 6.34315 6.34315 5 8 5C8.46315 5 8.90178 5.10495 9.29342 5.29237L8.51804 6.06774C8.35282 6.02356 8.17916 6 8 6C6.89543 6 6 6.89543 6 8C6 8.17916 6.02356 8.35282 6.06774 8.51804Z" fill="currentColor" />
</svg>
